<svg width="202" height="268" viewBox="0 0 202 268" fill="none" xmlns="http://www.w3.org/2000/svg">
<path d="M166 83C166 128.84 128.84 166 83 166C37.1604 166 0 128.84 0 83C0 37.1604 37.1604 0 83 0C128.84 0 166 37.1604 166 83Z" fill="#ED7E1C"/>
<line x1="108.267" y1="33" x2="108.267" y2="89.7081" stroke="black" stroke-width="6"/>
<line x1="62.9005" y1="32.9763" x2="63.3491" y2="89.6825" stroke="black" stroke-width="6"/>
<line x1="30" y1="119.702" x2="142.385" y2="119.702" stroke="black" stroke-width="6"/>
<path d="M202 133C202 160.614 179.614 183 152 183C124.386 183 102 160.614 102 133C102 105.386 124.386 83 152 83C179.614 83 202 105.386 202 133Z" fill="#A694F5"/>
<line x1="166.491" y1="105.981" x2="166.491" y2="140.143" stroke="black" stroke-width="6"/>
<line x1="139.161" y1="105.958" x2="139.432" y2="140.118" stroke="black" stroke-width="6"/>
<line x1="118.149" y1="157.019" x2="185.851" y2="157.019" stroke="black" stroke-width="6"/>
<path d="M139 200.5C139 237.779 108.779 268 71.5 268C34.2208 268 4 237.779 4 200.5C4 163.221 34.2208 133 71.5 133C108.779 133 139 163.221 139 200.5Z" fill="#91A75F"/>
<line x1="90.0125" y1="164.025" x2="90.0125" y2="210.143" stroke="black" stroke-width="6"/>
<line x1="53.1179" y1="164.001" x2="53.4827" y2="210.118" stroke="black" stroke-width="6"/>
<line x1="25.8013" y1="233.975" x2="117.199" y2="233.975" stroke="black" stroke-width="6"/>
</svg>
