<?xml version="1.0" standalone="no"?>
<!DOCTYPE svg PUBLIC "-//W3C//DTD SVG 20010904//EN"
 "http://www.w3.org/TR/2001/REC-SVG-20010904/DTD/svg10.dtd">
<svg version="1.0" xmlns="http://www.w3.org/2000/svg"
 width="70.000000pt" height="72.000000pt" viewBox="0 0 70.000000 72.000000"
 preserveAspectRatio="xMidYMid meet">

<g transform="translate(0.000000,72.000000) scale(0.100000,-0.100000)"
fill="#000000" stroke="none">
<path d="M180 365 l0 -175 25 0 c24 0 24 1 27 101 l3 101 58 -81 c32 -45 59
-81 61 -81 1 0 29 39 62 86 l59 87 3 -107 c3 -105 3 -106 27 -106 l25 0 0 175
c0 96 -2 175 -4 175 -3 0 -41 -52 -86 -115 -45 -63 -83 -115 -85 -115 -3 0
-41 52 -85 115 -45 63 -83 115 -86 115 -2 0 -4 -79 -4 -175z"/>
</g>
</svg>
