<svg width="393" height="420" viewBox="0 0 393 420" fill="none" xmlns="http://www.w3.org/2000/svg">
<g filter="url(#filter0_f_111_594)">
<circle cx="194" cy="210" r="130" fill="#D3CCC7"/>
</g>
<path d="M196.029 210.237L259.955 113.444C260.621 113.888 261.598 114.539 262.737 115.339C267.384 118.595 274.946 124.427 282.774 133.249C289.906 141.287 294.582 148.807 297.364 153.795C301.537 161.285 304.305 168.198 306.14 173.764L196.029 210.237Z" fill="#FFCE5C"/>
<path d="M196.028 210.237L283.321 286.617C282.552 287.491 281.471 288.704 280.154 290.096C279.03 291.28 272.045 298.578 262.811 305.091C246.519 316.592 229.116 321.477 226.556 322.173C218.906 324.26 205.632 327.028 188.985 326.021C172.174 325 159.256 320.559 152.019 317.584C145.464 314.89 134.691 309.768 123.297 300.591C116.149 294.833 106.486 285.655 98.0072 272.274C90.697 260.743 86.8644 250.174 84.8223 243.276C81.4632 231.908 80.3829 221.857 80.1313 214.381L196.028 210.237Z" fill="#91A75F"/>
<path d="M196.029 210.237L309.558 186.464C309.869 187.959 310.327 190.313 310.757 193.243C313.109 209.274 311.6 222.493 310.327 229.894C309.957 232.07 309.366 235.208 308.404 238.968L196.029 210.237Z" fill="#685346"/>
<path d="M196.029 210.237L305.148 249.596C304.527 251.328 303.846 253.075 303.106 254.866C299.14 264.369 294.286 272.407 289.359 279.098L196.029 210.237Z" fill="#FF9C46"/>
<path d="M249.164 107.12C232.25 98.3982 213.45 93.9764 194.424 94.2449C175.398 94.5135 156.73 99.4641 140.069 108.66C123.407 117.856 109.264 131.014 98.887 146.973C88.5102 162.932 82.2189 181.202 80.5683 200.17L196.059 210.232L249.164 107.12Z" fill="#A694F5"/>
<ellipse cx="195" cy="209.5" rx="90" ry="89.5" fill="#F7F4F2"/>
<defs>
<filter id="filter0_f_111_594" x="-16" y="0" width="420" height="420" filterUnits="userSpaceOnUse" color-interpolation-filters="sRGB">
<feFlood flood-opacity="0" result="BackgroundImageFix"/>
<feBlend mode="normal" in="SourceGraphic" in2="BackgroundImageFix" result="shape"/>
<feGaussianBlur stdDeviation="40" result="effect1_foregroundBlur_111_594"/>
</filter>
</defs>
</svg>
